<svg width="24" height="24" viewBox="0 0 24 24" fill="none" xmlns="http://www.w3.org/2000/svg">
<path d="M18.5446 20.75H17.7857V2.9375C17.7857 2.41973 17.378 2 16.875 2H4.125C3.62202 2 3.21429 2.41973 3.21429 2.9375V20.75H2.45536C2.20389 20.75 2 20.9599 2 21.2188V22H19V21.2188C19 20.9599 18.7961 20.75 18.5446 20.75ZM6.85714 4.96875C6.85714 4.70988 7.06103 4.5 7.3125 4.5H8.83036C9.08183 4.5 9.28571 4.70988 9.28571 4.96875V6.53125C9.28571 6.79012 9.08183 7 8.83036 7H7.3125C7.06103 7 6.85714 6.79012 6.85714 6.53125V4.96875ZM6.85714 8.71875C6.85714 8.45988 7.06103 8.25 7.3125 8.25H8.83036C9.08183 8.25 9.28571 8.45988 9.28571 8.71875V10.2812C9.28571 10.5401 9.08183 10.75 8.83036 10.75H7.3125C7.06103 10.75 6.85714 10.5401 6.85714 10.2812V8.71875ZM8.83036 14.5H7.3125C7.06103 14.5 6.85714 14.2901 6.85714 14.0312V12.4688C6.85714 12.2099 7.06103 12 7.3125 12H8.83036C9.08183 12 9.28571 12.2099 9.28571 12.4688V14.0312C9.28571 14.2901 9.08183 14.5 8.83036 14.5ZM11.7143 20.75H9.28571V17.4688C9.28571 17.2099 9.4896 17 9.74107 17H11.2589C11.5104 17 11.7143 17.2099 11.7143 17.4688V20.75ZM14.1429 14.0312C14.1429 14.2901 13.939 14.5 13.6875 14.5H12.1696C11.9182 14.5 11.7143 14.2901 11.7143 14.0312V12.4688C11.7143 12.2099 11.9182 12 12.1696 12H13.6875C13.939 12 14.1429 12.2099 14.1429 12.4688V14.0312ZM14.1429 10.2812C14.1429 10.5401 13.939 10.75 13.6875 10.75H12.1696C11.9182 10.75 11.7143 10.5401 11.7143 10.2812V8.71875C11.7143 8.45988 11.9182 8.25 12.1696 8.25H13.6875C13.939 8.25 14.1429 8.45988 14.1429 8.71875V10.2812ZM14.1429 6.53125C14.1429 6.79012 13.939 7 13.6875 7H12.1696C11.9182 7 11.7143 6.79012 11.7143 6.53125V4.96875C11.7143 4.70988 11.9182 4.5 12.1696 4.5H13.6875C13.939 4.5 14.1429 4.70988 14.1429 4.96875V6.53125Z" fill="black"/>
</svg>
