<svg width="42" height="42" viewBox="0 0 42 42" fill="none" xmlns="http://www.w3.org/2000/svg">
<path d="M27.894 1.61657C27.894 0.72455 28.7759 0 29.8662 0C30.9565 0 31.8384 0.72455 31.8384 1.61657V8.69802C31.8384 9.59004 30.9565 10.3146 29.8662 10.3146C28.7759 10.3146 27.894 9.59004 27.894 8.69802V1.61657ZM22.5962 36.1113C22.3228 36.1113 22.3228 32.6595 22.5962 32.6595H27.9932C28.2666 32.6595 28.2666 36.1113 27.9932 36.1113H22.5962ZM5.41748 23.5616C5.14404 23.5616 5.14404 20.1097 5.41748 20.1097H10.8145C11.0879 20.1097 11.0879 23.5616 10.8145 23.5616H5.41748ZM14.0068 23.5616C13.7334 23.5616 13.7334 20.1097 14.0068 20.1097H19.4038C19.6772 20.1097 19.6772 23.5616 19.4038 23.5616H14.0068ZM22.5962 23.5616C22.3228 23.5616 22.3228 20.1097 22.5962 20.1097H27.9932C28.2666 20.1097 28.2666 23.5616 27.9932 23.5616H22.5962ZM31.189 20.1097H36.5723C36.8457 20.1097 36.8457 23.5616 36.5723 23.5616H31.189C30.9155 23.5616 30.9155 20.1097 31.189 20.1097ZM5.41748 29.8364C5.14404 29.8364 5.14404 26.3846 5.41748 26.3846H10.8145C11.0879 26.3846 11.0879 29.8364 10.8145 29.8364H5.41748ZM14.0137 29.8364C13.7402 29.8364 13.7402 26.3846 14.0137 26.3846H19.4038C19.6772 26.3846 19.6772 29.8364 19.4038 29.8364H14.0137ZM22.603 29.8364C22.3296 29.8364 22.3296 26.3846 22.603 26.3846H27.9932C28.2666 26.3846 28.2666 29.8364 27.9932 29.8364H22.603ZM31.1958 29.8364C30.9224 29.8364 30.9224 26.3846 31.1958 26.3846H36.5723C36.8457 26.3846 36.8457 29.8364 36.5723 29.8364H31.1958ZM5.42432 36.1113C5.15088 36.1113 5.15088 32.6595 5.42432 32.6595H10.8145C11.0879 32.6595 11.0879 36.1113 10.8145 36.1113H5.42432ZM14.0137 36.1113C13.7402 36.1113 13.7402 32.6595 14.0137 32.6595H19.4038C19.6772 32.6595 19.6772 36.1113 19.4038 36.1113H14.0137ZM10.1206 1.61657C10.1206 0.72455 11.0024 0 12.0928 0C13.1831 0 14.0649 0.72455 14.0649 1.61657V8.69802C14.0649 9.59004 13.1831 10.3146 12.0928 10.3146C11.0024 10.3146 10.1206 9.59004 10.1206 8.69802V1.61657ZM2.1875 14.8567H39.8091V7.33778C39.8062 7.07284 39.7009 6.81931 39.5151 6.63032C39.4224 6.53714 39.3121 6.46321 39.1907 6.41277C39.0693 6.36233 38.9391 6.33638 38.8076 6.3364H35.2051C34.915 6.3364 34.6368 6.22117 34.4317 6.01607C34.2266 5.81097 34.1113 5.53279 34.1113 5.24274C34.1113 4.95268 34.2266 4.6745 34.4317 4.4694C34.6368 4.2643 34.915 4.14908 35.2051 4.14908H38.811C39.656 4.15178 40.4655 4.4886 41.063 5.08601C41.6604 5.68343 41.9973 6.49292 42 7.33778V38.8113C41.9973 39.6562 41.6604 40.4657 41.063 41.0631C40.4655 41.6605 39.656 41.9973 38.811 42H3.18896C2.34344 41.9973 1.53337 41.66 0.935811 41.0619C0.338252 40.4637 0.00180235 39.6533 0 38.8079L0 7.33778C0.00270381 6.49292 0.339551 5.68343 0.937013 5.08601C1.53447 4.4886 2.34403 4.15178 3.18896 4.14908H7.04102C7.18465 4.14908 7.32688 4.17736 7.45958 4.23233C7.59228 4.28729 7.71285 4.36785 7.81441 4.4694C7.91598 4.57096 7.99654 4.69152 8.05151 4.82421C8.10647 4.9569 8.13477 5.09912 8.13477 5.24274C8.13477 5.38636 8.10647 5.52857 8.05151 5.66126C7.99654 5.79395 7.91598 5.91452 7.81441 6.01607C7.71285 6.11763 7.59228 6.19819 7.45958 6.25315C7.32688 6.30811 7.18465 6.3364 7.04102 6.3364H3.18896C2.924 6.33928 2.67045 6.44462 2.48145 6.63032C2.38826 6.72307 2.31432 6.83332 2.26388 6.95472C2.21343 7.07613 2.18748 7.20631 2.1875 7.33778V14.8567ZM39.8125 17.0474H2.1875V38.8079C2.19038 39.0728 2.29573 39.3264 2.48145 39.5153C2.5742 39.6085 2.68446 39.6824 2.80588 39.7329C2.92729 39.7833 3.05748 39.8093 3.18896 39.8093H38.811C39.076 39.8064 39.3296 39.701 39.5186 39.5153C39.6117 39.4226 39.6857 39.3123 39.7361 39.1909C39.7866 39.0695 39.8125 38.9394 39.8125 38.8079V17.0474ZM17.2368 6.3364C16.9467 6.3364 16.6685 6.22117 16.4634 6.01607C16.2583 5.81097 16.1431 5.53279 16.1431 5.24274C16.1431 4.95268 16.2583 4.6745 16.4634 4.4694C16.6685 4.2643 16.9467 4.14908 17.2368 4.14908H24.582C24.7257 4.14908 24.8679 4.17736 25.0006 4.23233C25.1333 4.28729 25.2539 4.36785 25.3554 4.4694C25.457 4.57096 25.5376 4.69152 25.5925 4.82421C25.6475 4.9569 25.6758 5.09912 25.6758 5.24274C25.6758 5.38636 25.6475 5.52857 25.5925 5.66126C25.5376 5.79395 25.457 5.91452 25.3554 6.01607C25.2539 6.11763 25.1333 6.19819 25.0006 6.25315C24.8679 6.30811 24.7257 6.3364 24.582 6.3364H17.2368Z" fill="black"/>
</svg>
