<svg width="16" height="16" viewBox="0 0 16 16" fill="none" xmlns="http://www.w3.org/2000/svg">
<path d="M4.99989 8C6.30589 8 7.41789 8.835 7.82989 10H13.9999V12H7.82889C7.64571 12.5189 7.32338 12.9774 6.89716 13.3255C6.47093 13.6735 5.95722 13.8977 5.41218 13.9734C4.86715 14.0492 4.31178 13.9736 3.80679 13.755C3.30181 13.5364 2.86665 13.1831 2.54891 12.7339C2.23116 12.2846 2.04306 11.7566 2.00517 11.2076C1.96728 10.6587 2.08106 10.1099 2.33407 9.62119C2.58707 9.13253 2.96957 8.72284 3.43973 8.43692C3.90989 8.15099 4.44961 7.99985 4.99989 8ZM4.99989 10C4.73467 10 4.48032 10.1054 4.29278 10.2929C4.10525 10.4804 3.99989 10.7348 3.99989 11C3.99989 11.2652 4.10525 11.5196 4.29278 11.7071C4.48032 11.8946 4.73467 12 4.99989 12C5.26511 12 5.51946 11.8946 5.707 11.7071C5.89453 11.5196 5.99989 11.2652 5.99989 11C5.99989 10.7348 5.89453 10.4804 5.707 10.2929C5.51946 10.1054 5.26511 10 4.99989 10ZM10.9999 2C11.5499 2.00011 12.0892 2.15139 12.559 2.43732C13.0288 2.72325 13.411 3.13283 13.6637 3.62128C13.9165 4.10973 14.0301 4.65826 13.9922 5.20693C13.9542 5.75559 13.7662 6.28326 13.4486 6.73228C13.1311 7.1813 12.6962 7.53439 12.1915 7.75294C11.6868 7.9715 11.1318 8.04712 10.587 7.97153C10.0423 7.89595 9.52877 7.67207 9.10266 7.32437C8.67655 6.97667 8.35421 6.51852 8.17089 6H1.99989V4H8.16989C8.3769 3.41493 8.76021 2.90842 9.26704 2.55024C9.77386 2.19206 10.3793 1.99982 10.9999 2ZM10.9999 4C10.7347 4 10.4803 4.10536 10.2928 4.29289C10.1052 4.48043 9.99989 4.73478 9.99989 5C9.99989 5.26522 10.1052 5.51957 10.2928 5.70711C10.4803 5.89464 10.7347 6 10.9999 6C11.2651 6 11.5195 5.89464 11.707 5.70711C11.8945 5.51957 11.9999 5.26522 11.9999 5C11.9999 4.73478 11.8945 4.48043 11.707 4.29289C11.5195 4.10536 11.2651 4 10.9999 4Z" fill="#222222"/>
</svg>
