<svg width="28" height="29" viewBox="0 0 28 29" fill="none" xmlns="http://www.w3.org/2000/svg">
<circle cx="14" cy="14.0234" r="14" fill="#5E81F4"/>
<path d="M23 20.7337C23 20.9989 22.8946 21.2532 22.7071 21.4408C22.5196 21.6283 22.2652 21.7337 22 21.7337H6C5.73478 21.7337 5.48043 21.6283 5.29289 21.4408C5.10536 21.2532 5 20.9989 5 20.7337V10.2237C4.99989 10.0713 5.03462 9.92089 5.10152 9.78397C5.16841 9.64705 5.26572 9.52724 5.386 9.43367L13.386 3.21167C13.5615 3.07512 13.7776 3.00098 14 3.00098C14.2224 3.00098 14.4385 3.07512 14.614 3.21167L22.614 9.43367C22.7343 9.52724 22.8316 9.64705 22.8985 9.78397C22.9654 9.92089 23.0001 10.0713 23 10.2237V20.7337ZM21 19.7337V10.7117L14 5.26767L7 10.7117V19.7337H21ZM9 15.7337H19V17.7337H9V15.7337Z" fill="white"/>
</svg>
