<svg width="166" height="62" viewBox="0 0 166 62" fill="none" xmlns="http://www.w3.org/2000/svg">
<line x1="7.57886" y1="45.5166" x2="7.57886" y2="59.9994" stroke="#96F49D" stroke-width="2"/>
<path d="M13.6556 22.5266L13.6337 22.5115L13.6206 22.5346L9.5028 29.7713C8.96073 30.7238 9.00307 31.8211 9.43624 32.6802C9.86944 33.5394 10.6948 34.1623 11.7196 34.1623H15.9281C16.449 34.1623 16.8751 34.6269 16.8751 35.2047V38.7607C16.8751 39.3386 16.449 39.8031 15.9281 39.8031H11.7279C8.68949 39.8031 6.24221 37.9641 4.95669 35.4157C3.67115 32.8673 3.54865 29.6116 5.15902 26.7819L5.1378 26.7698L5.15902 26.7819L9.27316 19.5464L9.28425 19.5269L9.26575 19.5142L5.96899 17.2519L5.95517 17.272L5.96898 17.2519C5.48906 16.9227 5.31001 16.3557 5.38975 15.8346C5.46949 15.3135 5.80721 14.8427 6.35614 14.7035L15.28 12.441C15.9617 12.2682 16.645 12.7345 16.8035 13.4883L18.8639 23.2884C18.9928 23.9012 18.7511 24.4394 18.3594 24.7428C17.9679 25.0461 17.427 25.1147 16.9533 24.7895L13.6556 22.5266ZM30.2228 12.9165L30.2413 12.9038L30.2302 12.8843L26.8877 7.01006C25.8842 5.24684 23.4918 5.18675 22.4531 7.01201L20.9991 9.56729C20.7213 10.0554 20.1378 10.2021 19.6955 9.89857L16.9497 8.01432C16.5059 7.70974 16.3696 7.06604 16.6479 6.57672L18.102 4.01941C18.102 4.01941 18.102 4.0194 18.102 4.0194C21.137 -1.31335 28.2118 -1.30115 31.2398 4.0194L34.5802 9.89414L34.5933 9.91723L34.6152 9.9022L37.9089 7.64199C38.388 7.31306 38.9281 7.38511 39.3179 7.69093C39.708 7.99698 39.947 8.53706 39.8195 9.14308L37.7593 18.9432C37.6019 19.6921 36.9223 20.1643 36.2358 19.9905L27.3119 17.728C26.7616 17.5884 26.4245 17.1172 26.3454 16.596C26.2663 16.0748 26.4461 15.508 26.9248 15.1796L30.2228 12.9165ZM29.8274 34.138V34.1624H29.8519H37.6219C38.6479 34.1624 39.4729 33.539 39.9059 32.6798C40.3388 31.8207 40.3809 30.7239 39.8399 29.7733L37.6085 25.8518C37.3301 25.3623 37.4664 24.7185 37.9102 24.4139L40.6513 22.5329C41.0938 22.2292 41.6774 22.3761 41.955 22.8645L44.1824 26.7819L44.2037 26.7698L44.1824 26.7819C45.7942 29.6138 45.6704 32.8696 44.384 35.4174C43.0975 37.9652 40.6495 39.8031 37.6135 39.8031H29.8519H29.8274V39.8276V44.0938C29.8274 44.7204 29.4827 45.1855 29.0399 45.3851C28.5974 45.5847 28.0562 45.5197 27.6589 45.0833L21.1827 37.9722C20.6853 37.4261 20.6853 36.5397 21.1827 35.9935L27.6589 28.8832C28.0589 28.4438 28.6002 28.381 29.0419 28.5823C29.4841 28.7837 29.8274 29.2502 29.8274 29.8725V34.138Z" fill="#96F49D" stroke="#96F49D" stroke-width="0.0488281"/>
<line x1="41.1316" y1="45.5166" x2="41.1316" y2="59.9994" stroke="#96F49D" stroke-width="2"/>
<line x1="50" y1="61" y2="61" stroke="#96F49D" stroke-width="2"/>
<path d="M60.2422 21.8369C60.7793 21.902 61.2676 21.9508 61.707 21.9834C62.1302 22.016 62.4964 22.0485 62.8057 22.0811C63.1637 22.1136 63.4811 22.138 63.7578 22.1543C64.0508 22.1543 64.4251 22.1462 64.8809 22.1299C65.2715 22.1136 65.7679 22.0892 66.3701 22.0566C66.9723 22.0241 67.7129 21.9671 68.5918 21.8857C68.1686 22.1299 67.8187 22.374 67.542 22.6182C67.2816 22.8623 67.0781 23.082 66.9316 23.2773C66.7526 23.5052 66.6224 23.7331 66.541 23.9609C66.4922 24.2702 66.5085 24.8724 66.5898 25.7676C66.6224 26.1419 66.6712 26.6058 66.7363 27.1592C66.8177 27.6963 66.9154 28.3392 67.0293 29.0879C67.1595 29.8203 67.3141 30.6667 67.4932 31.627C67.6885 32.5872 67.9082 33.6777 68.1523 34.8984C68.4779 33.9707 68.7464 33.1488 68.958 32.4326C69.1696 31.7002 69.3486 31.0736 69.4951 30.5527C69.6579 29.9668 69.7962 29.446 69.9102 28.9902C70.0241 28.5182 70.1624 27.9079 70.3252 27.1592C70.4554 26.5244 70.6263 25.7025 70.8379 24.6934C71.0495 23.6842 71.3099 22.4391 71.6191 20.958L72.498 21.0801C72.5794 22.2357 72.6608 23.2529 72.7422 24.1318C72.8398 25.0107 72.9212 25.7594 72.9863 26.3779C73.0514 27.0941 73.1165 27.7126 73.1816 28.2334C73.2467 28.7054 73.3444 29.2507 73.4746 29.8691C73.5885 30.39 73.735 31.0329 73.9141 31.7979C74.0931 32.5465 74.3291 33.3929 74.6221 34.3369C74.915 33.1813 75.1755 32.1478 75.4033 31.2363C75.6475 30.3249 75.8509 29.5192 76.0137 28.8193C76.1927 28.1195 76.3392 27.5173 76.4531 27.0127C76.5833 26.5081 76.6891 26.085 76.7705 25.7432C76.9495 24.9294 77.0553 24.3841 77.0879 24.1074C77.0716 23.7982 76.9984 23.4971 76.8682 23.2041C76.7542 22.9437 76.5752 22.6589 76.3311 22.3496C76.0869 22.0404 75.7288 21.7393 75.2568 21.4463C76.2497 21.4788 77.0553 21.5033 77.6738 21.5195C78.3086 21.5195 78.8132 21.5195 79.1875 21.5195H80.1641H81.043C81.3685 21.5195 81.7917 21.5195 82.3125 21.5195C82.8496 21.5033 83.5332 21.4788 84.3633 21.4463C83.6471 21.8206 83.0693 22.1624 82.6299 22.4717C82.1904 22.7809 81.8486 23.0413 81.6045 23.2529C81.3115 23.5133 81.0999 23.7331 80.9697 23.9121C80.8395 24.2376 80.6279 24.9701 80.335 26.1094C80.2048 26.5977 80.0583 27.208 79.8955 27.9404C79.7327 28.6566 79.5374 29.5192 79.3096 30.5283C79.098 31.5374 78.8538 32.7174 78.5771 34.0684C78.3005 35.403 77.9912 36.9329 77.6494 38.6582L73.4258 38.2188L71.6191 30.626C71.3424 32.0094 71.1227 33.1325 70.96 33.9951C70.7972 34.8415 70.6751 35.5007 70.5938 35.9727C70.4961 36.5423 70.4391 36.9574 70.4229 37.2178C70.4066 37.4456 70.3903 37.6654 70.374 37.877C70.3577 38.056 70.3333 38.2513 70.3008 38.4629C70.2845 38.6745 70.2601 38.8698 70.2275 39.0488H65.9062C65.4831 37.1934 65.1006 35.5576 64.7588 34.1416C64.4333 32.7093 64.1403 31.4561 63.8799 30.3818C63.6195 29.3076 63.3916 28.3962 63.1963 27.6475C63.0173 26.8988 62.8545 26.2721 62.708 25.7676C62.3825 24.5957 62.1465 23.8714 62 23.5947C61.8861 23.4645 61.7396 23.3099 61.5605 23.1309C61.4141 22.9844 61.235 22.8053 61.0234 22.5938C60.7956 22.3659 60.5352 22.1136 60.2422 21.8369ZM85.3154 22.4717C86.1292 22.5205 86.8128 22.5612 87.3662 22.5938C87.9359 22.61 88.4079 22.6263 88.7822 22.6426C89.2054 22.6589 89.5635 22.6589 89.8564 22.6426C90.1494 22.6263 90.5482 22.5856 91.0527 22.5205C91.4759 22.4717 92.0374 22.3984 92.7373 22.3008C93.4535 22.1868 94.3405 22.0404 95.3984 21.8613C95.0241 22.2357 94.7311 22.5775 94.5195 22.8867C94.3242 23.1797 94.1696 23.432 94.0557 23.6436C93.9255 23.904 93.8359 24.1237 93.7871 24.3027C93.7546 24.4655 93.7871 24.8724 93.8848 25.5234C93.9824 26.1745 94.1208 26.9476 94.2998 27.8428C94.4788 28.7217 94.6742 29.6657 94.8857 30.6748C95.0973 31.6676 95.3089 32.6035 95.5205 33.4824C95.7321 34.3451 95.9193 35.0856 96.082 35.7041C96.2611 36.3063 96.3913 36.6644 96.4727 36.7783C96.7168 37.1201 96.8714 37.348 96.9365 37.4619C97.0016 37.5596 97.1156 37.6491 97.2783 37.7305C97.3434 37.763 97.4492 37.8118 97.5957 37.877C97.7259 37.9421 97.8968 38.0234 98.1084 38.1211C98.3363 38.2188 98.6211 38.3327 98.9629 38.4629C98.3281 38.4954 97.7829 38.5199 97.3271 38.5361C96.8714 38.5361 96.4971 38.5443 96.2041 38.5605C95.8623 38.5768 95.5693 38.5931 95.3252 38.6094C95.0811 38.6094 94.7881 38.6257 94.4463 38.6582C94.1533 38.6908 93.7708 38.7233 93.2988 38.7559C92.8431 38.7884 92.306 38.821 91.6875 38.8535C92.013 38.6257 92.2734 38.4222 92.4688 38.2432C92.6803 38.0479 92.8431 37.8851 92.957 37.7549C93.0872 37.5921 93.1768 37.4456 93.2256 37.3154C93.2581 37.1689 93.2826 36.9492 93.2988 36.6562C93.3151 36.3958 93.3151 36.054 93.2988 35.6309C93.2826 35.1914 93.2419 34.6217 93.1768 33.9219L86.7559 34.5811C86.5931 34.8577 86.471 35.1019 86.3896 35.3135C86.3083 35.5088 86.2513 35.6797 86.2188 35.8262C86.1699 36.0052 86.1536 36.1517 86.1699 36.2656C86.2025 36.3958 86.2594 36.5505 86.3408 36.7295C86.4222 36.8923 86.5361 37.0876 86.6826 37.3154C86.8454 37.527 87.0814 37.7793 87.3906 38.0723C86.9837 38.056 86.5687 38.0479 86.1455 38.0479C85.7223 38.0479 85.3317 38.056 84.9736 38.0723C84.5505 38.0885 84.1354 38.1048 83.7285 38.1211C83.3216 38.1374 82.8577 38.1618 82.3369 38.1943C81.8975 38.2269 81.3848 38.2676 80.7988 38.3164C80.1966 38.349 79.5537 38.3978 78.8701 38.4629C79.2933 38.2676 79.6514 38.0723 79.9443 37.877C80.2373 37.6654 80.4814 37.4701 80.6768 37.291C80.9046 37.0957 81.0999 36.9085 81.2627 36.7295C81.3766 36.5667 81.6045 36.1924 81.9463 35.6064C82.2881 35.0042 82.6706 34.2962 83.0938 33.4824C83.5332 32.6686 83.9889 31.7979 84.4609 30.8701C84.9492 29.9424 85.3887 29.0716 85.7793 28.2578C86.1699 27.4277 86.4873 26.7116 86.7314 26.1094C86.9756 25.5072 87.0977 25.1165 87.0977 24.9375C87.0651 24.7259 86.9837 24.4899 86.8535 24.2295C86.7396 24.0016 86.5605 23.7412 86.3164 23.4482C86.0885 23.1553 85.7549 22.8298 85.3154 22.4717ZM92.8838 32.1152C92.7861 31.5456 92.6966 31.0573 92.6152 30.6504C92.5339 30.2272 92.4688 29.8773 92.4199 29.6006C92.3548 29.2751 92.306 28.9902 92.2734 28.7461C92.2246 28.5182 92.1676 28.2253 92.1025 27.8672C92.0374 27.5579 91.9561 27.1755 91.8584 26.7197C91.777 26.2477 91.6712 25.6862 91.541 25.0352C90.6133 26.8906 89.889 28.3311 89.3682 29.3564C88.8636 30.3656 88.4974 31.1061 88.2695 31.5781C87.9928 32.1315 87.8382 32.457 87.8057 32.5547L92.8838 32.1152ZM113.514 21.1289C113.286 21.6497 113.082 22.1055 112.903 22.4961C112.724 22.8867 112.57 23.2204 112.439 23.4971C112.293 23.8063 112.171 24.083 112.073 24.3271C111.992 24.5062 111.886 24.7503 111.756 25.0596C111.626 25.3363 111.463 25.7025 111.268 26.1582C111.089 26.5977 110.853 27.1673 110.56 27.8672C110.413 27.265 110.234 26.736 110.022 26.2803C109.811 25.8245 109.583 25.4258 109.339 25.084C109.095 24.7422 108.834 24.4655 108.558 24.2539C108.297 24.026 108.037 23.8389 107.776 23.6924C107.174 23.3669 106.539 23.1878 105.872 23.1553C104.993 23.2041 104.301 23.3506 103.797 23.5947C103.309 23.8226 102.951 24.0911 102.723 24.4004C102.495 24.6934 102.373 25.0026 102.356 25.3281C102.34 25.6374 102.381 25.8978 102.479 26.1094C102.56 26.3047 102.845 26.5326 103.333 26.793C103.838 27.0534 104.44 27.3545 105.14 27.6963C105.856 28.0218 106.621 28.3962 107.435 28.8193C108.248 29.2262 108.997 29.682 109.681 30.1865C110.381 30.6748 110.966 31.2119 111.438 31.7979C111.927 32.3675 112.195 32.9779 112.244 33.6289C112.293 34.459 112.285 35.2077 112.22 35.875C112.155 36.5423 111.927 37.112 111.536 37.584C111.146 38.056 110.535 38.4303 109.705 38.707C108.891 38.9837 107.76 39.1546 106.312 39.2197C104.814 39.2848 103.585 39.2035 102.625 38.9756C101.665 38.7477 100.883 38.4385 100.281 38.0479C99.6953 37.6572 99.2559 37.2259 98.9629 36.7539C98.6862 36.2819 98.4827 35.8343 98.3525 35.4111C98.2223 34.9717 98.1328 34.5973 98.084 34.2881C98.0352 33.9626 97.9538 33.7673 97.8398 33.7021C97.7096 33.6208 97.5794 33.5475 97.4492 33.4824C97.3353 33.4173 97.2132 33.3604 97.083 33.3115C96.9528 33.2464 96.8226 33.1895 96.6924 33.1406L103.797 31.9932C103.39 32.3187 103.073 32.6198 102.845 32.8965C102.633 33.1732 102.47 33.4173 102.356 33.6289C102.226 33.873 102.137 34.1009 102.088 34.3125C102.055 34.5404 102.129 34.8252 102.308 35.167C102.487 35.5088 102.731 35.8424 103.04 36.168C103.366 36.4772 103.74 36.7376 104.163 36.9492C104.586 37.1608 105.026 37.2503 105.481 37.2178C106.051 37.1689 106.515 37.0306 106.873 36.8027C107.231 36.5586 107.5 36.2575 107.679 35.8994C107.874 35.5413 107.988 35.1507 108.021 34.7275C108.053 34.3044 108.012 33.8893 107.898 33.4824C107.801 33.0592 107.638 32.6686 107.41 32.3105C107.182 31.9362 106.914 31.627 106.604 31.3828C106.328 31.1875 105.896 31.0003 105.311 30.8213C104.741 30.6423 104.098 30.4469 103.382 30.2354C102.682 30.0238 101.958 29.7796 101.209 29.5029C100.477 29.2262 99.8092 28.8844 99.207 28.4775C98.6211 28.0706 98.1491 27.5905 97.791 27.0371C97.4492 26.4837 97.319 25.8164 97.4004 25.0352C97.4655 24.3678 97.6771 23.8145 98.0352 23.375C98.4095 22.9193 98.8734 22.5612 99.4268 22.3008C99.9964 22.0241 100.623 21.8206 101.307 21.6904C102.007 21.5602 102.715 21.487 103.431 21.4707C104.163 21.4382 104.879 21.4463 105.579 21.4951C106.295 21.5439 106.938 21.6009 107.508 21.666C108.077 21.7311 108.558 21.7962 108.948 21.8613C109.355 21.9102 109.607 21.9427 109.705 21.959C110.128 21.9915 110.551 21.9834 110.975 21.9346C111.349 21.902 111.756 21.8288 112.195 21.7148C112.651 21.5846 113.09 21.3893 113.514 21.1289ZM112.903 21.1777C113.994 21.3079 114.938 21.4056 115.735 21.4707C116.533 21.5195 117.192 21.5602 117.713 21.5928C118.315 21.6253 118.82 21.6335 119.227 21.6172C119.65 21.6009 120.228 21.5602 120.96 21.4951C121.578 21.4463 122.392 21.3812 123.401 21.2998C124.41 21.2021 125.672 21.0719 127.186 20.9092C127.202 21.2835 127.21 21.6497 127.21 22.0078C127.226 22.3496 127.243 22.6507 127.259 22.9111C127.275 23.2204 127.283 23.5052 127.283 23.7656C127.283 24.0423 127.267 24.3923 127.234 24.8154C127.202 25.1735 127.145 25.6292 127.063 26.1826C126.998 26.7197 126.893 27.3626 126.746 28.1113C126.518 27.2324 126.299 26.5244 126.087 25.9873C125.875 25.4339 125.68 24.9945 125.501 24.6689C125.306 24.2946 125.11 24.0098 124.915 23.8145C124.703 23.668 124.451 23.5459 124.158 23.4482C123.898 23.3669 123.564 23.3018 123.157 23.2529C122.767 23.2041 122.303 23.2122 121.766 23.2773C121.684 25.4258 121.627 27.1673 121.595 28.502C121.562 29.8366 121.538 30.8783 121.521 31.627C121.505 32.5221 121.497 33.165 121.497 33.5557C121.513 34.109 121.603 34.6543 121.766 35.1914C121.896 35.6471 122.107 36.1191 122.4 36.6074C122.693 37.0957 123.117 37.527 123.67 37.9014H120.691C120.415 37.9014 120.073 37.9176 119.666 37.9502C119.324 37.9827 118.885 38.0153 118.348 38.0479C117.827 38.0804 117.216 38.1374 116.517 38.2188C116.761 37.7956 116.956 37.4131 117.103 37.0713C117.249 36.7295 117.363 36.4365 117.444 36.1924C117.542 35.8994 117.615 35.639 117.664 35.4111C117.68 35.0856 117.721 34.4264 117.786 33.4336C117.802 33.0267 117.819 32.5221 117.835 31.9199C117.868 31.3177 117.9 30.6016 117.933 29.7715C117.981 28.9414 118.022 27.9893 118.055 26.915C118.104 25.8245 118.152 24.5957 118.201 23.2285C117.908 23.1471 117.632 23.1553 117.371 23.2529C117.111 23.3343 116.883 23.4401 116.688 23.5703C116.46 23.7331 116.24 23.9284 116.028 24.1562C115.817 24.4329 115.581 24.791 115.32 25.2305C115.092 25.6048 114.832 26.1012 114.539 26.7197C114.246 27.3219 113.912 28.0706 113.538 28.9658C113.457 28.0218 113.4 27.2487 113.367 26.6465C113.335 26.028 113.31 25.5479 113.294 25.2061C113.278 24.7992 113.27 24.498 113.27 24.3027C113.27 24.1237 113.253 23.8877 113.221 23.5947C113.188 23.3506 113.147 23.0332 113.099 22.6426C113.05 22.2357 112.985 21.7474 112.903 21.1777ZM125.55 22.3252C126.689 22.3577 127.633 22.3822 128.382 22.3984C129.147 22.3984 129.765 22.3984 130.237 22.3984H131.531H138.807C138.839 22.724 138.864 23.0413 138.88 23.3506C138.912 23.6436 138.929 23.904 138.929 24.1318C138.929 24.4085 138.921 24.6608 138.904 24.8887C138.888 25.1165 138.864 25.3607 138.831 25.6211C138.799 25.849 138.766 26.0931 138.733 26.3535C138.701 26.6139 138.644 26.8825 138.562 27.1592C138.335 26.2803 138.025 25.613 137.635 25.1572C137.26 24.7015 136.878 24.3678 136.487 24.1562C136.032 23.9121 135.551 23.7819 135.047 23.7656C134.38 23.7982 133.859 23.8551 133.484 23.9365C133.11 24.0179 132.817 24.1318 132.605 24.2783C132.394 24.4248 132.231 24.5957 132.117 24.791C132.02 24.9701 131.914 25.1735 131.8 25.4014C131.702 25.5967 131.613 25.8978 131.531 26.3047C131.45 26.6465 131.368 27.1104 131.287 27.6963C131.222 28.2822 131.149 29.0391 131.067 29.9668C131.507 29.8366 131.857 29.7145 132.117 29.6006C132.394 29.4867 132.614 29.389 132.776 29.3076C132.955 29.21 133.086 29.1204 133.167 29.0391C133.232 28.9414 133.33 28.7624 133.46 28.502C133.558 28.2741 133.688 27.9648 133.851 27.5742C134.03 27.1836 134.241 26.6465 134.485 25.9629C134.518 26.7116 134.534 27.3382 134.534 27.8428C134.534 28.3311 134.542 28.7298 134.559 29.0391C134.559 29.3971 134.567 29.682 134.583 29.8936V30.8213C134.583 31.1631 134.583 31.627 134.583 32.2129C134.599 32.7826 134.624 33.5068 134.656 34.3857C134.461 33.7835 134.282 33.3115 134.119 32.9697C133.973 32.6117 133.842 32.3431 133.729 32.1641C133.598 31.9525 133.484 31.806 133.387 31.7246C133.273 31.6921 133.118 31.6595 132.923 31.627C132.744 31.6107 132.516 31.6025 132.239 31.6025C131.979 31.6025 131.645 31.6432 131.238 31.7246C131.189 32.6198 131.181 33.3441 131.214 33.8975C131.263 34.4346 131.328 34.8496 131.409 35.1426C131.491 35.4844 131.588 35.7285 131.702 35.875C131.849 36.0215 132.142 36.1436 132.581 36.2412C133.021 36.3226 133.517 36.3551 134.07 36.3389C134.64 36.3063 135.218 36.2087 135.804 36.0459C136.39 35.8831 136.91 35.6146 137.366 35.2402C137.708 34.931 138.074 34.5404 138.465 34.0684C138.79 33.6615 139.148 33.1488 139.539 32.5303C139.946 31.9118 140.345 31.1631 140.735 30.2842C140.67 31.0166 140.621 31.627 140.589 32.1152C140.573 32.5872 140.548 32.9697 140.516 33.2627C140.483 33.6045 140.459 33.8649 140.442 34.0439C140.442 34.2393 140.418 34.516 140.369 34.874C140.337 35.1833 140.28 35.6064 140.198 36.1436C140.133 36.6644 140.044 37.3317 139.93 38.1455C139.165 38.1618 138.44 38.1781 137.757 38.1943C137.073 38.1943 136.471 38.2025 135.95 38.2188C135.332 38.235 134.762 38.2513 134.241 38.2676C133.704 38.2676 133.11 38.292 132.459 38.3408C131.889 38.3734 131.214 38.4222 130.433 38.4873C129.668 38.5524 128.821 38.6419 127.894 38.7559C127.975 37.6491 128.032 36.6074 128.064 35.6309C128.113 34.638 128.146 33.7673 128.162 33.0186C128.178 32.1396 128.178 31.3258 128.162 30.5771C128.243 28.7054 128.211 27.1917 128.064 26.0361C127.918 24.8805 127.747 24.14 127.552 23.8145C127.454 23.7005 127.316 23.5622 127.137 23.3994C126.99 23.2692 126.787 23.1146 126.526 22.9355C126.266 22.7565 125.94 22.5531 125.55 22.3252ZM139.368 22.4229C140.084 22.4554 140.695 22.4798 141.199 22.4961C141.704 22.5124 142.119 22.5286 142.444 22.5449C142.835 22.5612 143.152 22.5775 143.396 22.5938C143.657 22.61 143.982 22.6182 144.373 22.6182C145.04 22.6182 145.984 22.5693 147.205 22.4717C146.945 22.6019 146.741 22.7484 146.595 22.9111C146.448 23.0576 146.334 23.2041 146.253 23.3506C146.155 23.5296 146.082 23.7005 146.033 23.8633C146.001 24.0586 146.074 24.3597 146.253 24.7666C146.383 25.1084 146.619 25.5723 146.961 26.1582C147.303 26.7441 147.807 27.501 148.475 28.4287C149.272 27.2568 149.891 26.3372 150.33 25.6699C150.77 25.0026 151.095 24.498 151.307 24.1562C151.551 23.7493 151.697 23.4808 151.746 23.3506C151.73 23.2692 151.665 23.1553 151.551 23.0088C151.453 22.8786 151.29 22.724 151.062 22.5449C150.851 22.3496 150.534 22.1136 150.11 21.8369C150.778 21.9346 151.331 22.0078 151.771 22.0566C152.226 22.1055 152.592 22.138 152.869 22.1543C153.195 22.1706 153.463 22.1706 153.675 22.1543C153.886 22.138 154.196 22.1217 154.603 22.1055C154.944 22.0892 155.4 22.0729 155.97 22.0566C156.556 22.0404 157.304 22.016 158.216 21.9834C157.858 22.1624 157.549 22.3333 157.288 22.4961C157.028 22.6589 156.808 22.8053 156.629 22.9355C156.417 23.0983 156.23 23.2367 156.067 23.3506C155.872 23.5459 155.514 23.9447 154.993 24.5469C154.554 25.0677 153.927 25.8327 153.113 26.8418C152.299 27.8346 151.209 29.1855 149.842 30.8945C150.949 32.0664 151.844 32.9941 152.527 33.6777C153.211 34.3613 153.748 34.8822 154.139 35.2402C154.594 35.6634 154.928 35.9482 155.14 36.0947C155.335 36.2087 155.604 36.3551 155.945 36.5342C156.238 36.6969 156.621 36.9004 157.093 37.1445C157.565 37.3724 158.167 37.6491 158.899 37.9746H154.822C154.48 37.9746 154.065 37.9909 153.577 38.0234C153.154 38.056 152.633 38.0885 152.015 38.1211C151.396 38.1536 150.672 38.2106 149.842 38.292C150.135 38.113 150.346 37.9421 150.477 37.7793C150.623 37.6003 150.721 37.4456 150.77 37.3154C150.835 37.1689 150.843 37.0387 150.794 36.9248C150.713 36.762 150.574 36.5179 150.379 36.1924C150.2 35.9157 149.948 35.5251 149.622 35.0205C149.297 34.516 148.849 33.8486 148.279 33.0186C147.628 33.7184 147.124 34.3044 146.766 34.7764C146.424 35.2321 146.163 35.5983 145.984 35.875C145.789 36.2005 145.659 36.4609 145.594 36.6562C145.594 36.8353 145.634 37.0143 145.716 37.1934C145.797 37.3561 145.927 37.5352 146.106 37.7305C146.302 37.9258 146.587 38.113 146.961 38.292L139.734 38.6094C140.32 38.2025 140.809 37.8363 141.199 37.5107C141.59 37.1689 141.907 36.8841 142.151 36.6562C142.428 36.3796 142.648 36.1354 142.811 35.9238C142.973 35.6797 143.226 35.3216 143.567 34.8496C143.844 34.4427 144.227 33.8975 144.715 33.2139C145.219 32.5303 145.862 31.6514 146.644 30.5771C145.781 29.1937 145.081 28.0951 144.544 27.2812C144.023 26.4674 143.6 25.8408 143.274 25.4014C142.9 24.8968 142.623 24.5469 142.444 24.3516C142.282 24.2051 142.054 24.0423 141.761 23.8633C141.517 23.7005 141.199 23.5052 140.809 23.2773C140.418 23.0332 139.938 22.7484 139.368 22.4229Z" fill="#96F49D"/>
</svg>
