<svg version="1.0" preserveAspectRatio="xMidYMid meet" viewBox="0 265.140537708662 780.8399999999999 309.419997326" zoomAndPan="magnify" xmlns:xlink="http://www.w3.org/1999/xlink" xmlns="http://www.w3.org/2000/svg" style="max-height: 500px" width="780.8399999999999" height="309.419997326"><defs><clipPath id="6afafe3e65"><path clip-rule="nonzero" d="M 63 287.992188 L 244 287.992188 L 244 486 L 63 486 Z M 63 287.992188"/></clipPath><clipPath id="882fa03c74"><path clip-rule="nonzero" d="M 46.378906 546 L 268 546 L 268 554.992188 L 46.378906 554.992188 Z M 46.378906 546"/></clipPath></defs><rect fill-opacity="1" height="971.999992" y="-80.999999" fill="#ffffff" width="972" x="-81"/><rect fill-opacity="1" height="971.999992" y="-80.999999" fill="#ffffff" width="972" x="-81"/><path stroke-miterlimit="4" stroke-opacity="1" stroke-width="2" stroke="#96f49d" d="M 7.57857 45.517369 L 7.57857 59.999076" stroke-linejoin="miter" fill="none" transform="matrix(4.311744, 0, 0, 4.311744, 47.120027, 287.990778)" stroke-linecap="butt"/><path fill-rule="nonzero" fill-opacity="1" d="M 106 385.121094 L 105.90625 385.054688 L 105.847656 385.152344 L 88.09375 416.355469 C 85.757812 420.464844 85.9375 425.195312 87.808594 428.898438 C 89.675781 432.605469 93.234375 435.289062 97.652344 435.289062 L 115.796875 435.289062 C 118.042969 435.289062 119.882812 437.292969 119.882812 439.785156 L 119.882812 455.117188 C 119.882812 457.609375 118.042969 459.613281 115.796875 459.613281 L 97.6875 459.613281 C 84.585938 459.613281 74.035156 451.683594 68.492188 440.695312 C 62.949219 429.707031 62.421875 415.667969 69.363281 403.46875 L 69.273438 403.414062 L 69.363281 403.46875 L 87.101562 372.269531 L 87.152344 372.1875 L 87.070312 372.132812 L 72.855469 362.375 L 72.796875 362.464844 L 72.855469 362.375 C 70.789062 360.957031 70.015625 358.511719 70.359375 356.265625 C 70.703125 354.019531 72.160156 351.988281 74.527344 351.386719 L 113.003906 341.632812 C 115.941406 340.886719 118.890625 342.898438 119.574219 346.148438 L 128.457031 388.40625 C 129.011719 391.046875 127.96875 393.367188 126.28125 394.675781 C 124.59375 395.984375 122.261719 396.277344 120.21875 394.875 Z M 177.433594 343.683594 L 177.511719 343.628906 L 177.464844 343.542969 L 163.054688 318.214844 C 158.726562 310.613281 148.410156 310.355469 143.933594 318.226562 L 137.664062 329.242188 C 136.464844 331.347656 133.949219 331.980469 132.042969 330.671875 L 120.203125 322.546875 C 118.289062 321.234375 117.703125 318.457031 118.902344 316.347656 L 125.171875 305.320312 C 138.257812 282.328125 168.761719 282.378906 181.816406 305.320312 L 196.222656 330.652344 L 196.277344 330.75 L 196.371094 330.6875 L 210.574219 320.941406 C 212.640625 319.523438 214.96875 319.832031 216.648438 321.152344 C 218.332031 322.472656 219.359375 324.800781 218.8125 327.414062 L 209.929688 369.667969 C 209.25 372.898438 206.320312 374.933594 203.359375 374.183594 L 164.882812 364.429688 C 162.507812 363.828125 161.054688 361.796875 160.714844 359.546875 C 160.375 357.300781 161.148438 354.855469 163.210938 353.441406 Z M 175.726562 435.183594 L 175.726562 435.289062 L 209.335938 435.289062 C 213.761719 435.289062 217.316406 432.601562 219.183594 428.898438 C 221.050781 425.195312 221.230469 420.464844 218.898438 416.367188 L 209.277344 399.457031 C 208.078125 397.347656 208.664062 394.570312 210.578125 393.257812 L 222.398438 385.148438 C 224.304688 383.835938 226.824219 384.472656 228.019531 386.578125 L 237.625 403.46875 L 237.714844 403.414062 L 237.625 403.46875 C 244.574219 415.679688 244.039062 429.714844 238.492188 440.703125 C 232.945312 451.6875 222.390625 459.613281 209.300781 459.613281 L 175.726562 459.613281 L 175.726562 478.113281 C 175.726562 480.8125 174.242188 482.820312 172.332031 483.679688 C 170.425781 484.539062 168.089844 484.261719 166.378906 482.378906 L 138.453125 451.71875 C 136.308594 449.363281 136.308594 445.539062 138.453125 443.183594 L 166.378906 412.527344 C 168.101562 410.632812 170.4375 410.363281 172.339844 411.230469 C 174.246094 412.097656 175.726562 414.109375 175.726562 416.792969 Z M 175.726562 435.183594" fill="#32cd32"/><g clip-path="url(#6afafe3e65)"><path stroke-miterlimit="4" stroke-opacity="1" stroke-width="0.049" stroke="#96f49d" d="M 13.655722 22.526923 L 13.63398 22.511522 L 13.62039 22.534171 L 9.50282 29.770948 C 8.961058 30.724013 9.002732 31.821126 9.436685 32.679972 C 9.869732 33.539725 10.695058 34.162116 11.719694 34.162116 L 15.92786 34.162116 C 16.448785 34.162116 16.87549 34.626872 16.87549 35.204872 L 16.87549 38.760749 C 16.87549 39.338749 16.448785 39.803505 15.92786 39.803505 L 11.727848 39.803505 C 8.689272 39.803505 6.242284 37.964414 4.956733 35.41596 C 3.671181 32.867505 3.548877 29.611499 5.158761 26.782199 L 5.137924 26.769515 L 5.158761 26.782199 L 9.272707 19.546328 L 9.284485 19.527303 L 9.26546 19.51462 L 5.968686 17.251541 L 5.955096 17.272378 L 5.968686 17.251541 C 5.489435 16.922679 5.310056 16.355551 5.38978 15.834626 C 5.469504 15.313702 5.807426 14.842604 6.356435 14.703087 L 15.280102 12.440915 C 15.961381 12.267877 16.645377 12.734445 16.80392 13.4882 L 18.864064 23.288832 C 18.992709 23.901259 18.750819 24.439396 18.359446 24.742892 C 17.968073 25.046387 17.427217 25.114334 16.953402 24.789096 Z M 30.22294 12.916542 L 30.241059 12.903859 L 30.230188 12.883928 L 26.888116 7.009709 C 25.884317 5.246718 23.491687 5.186925 22.453461 7.012427 L 20.999402 9.567223 C 20.721273 10.055533 20.137838 10.202298 19.695731 9.898802 L 16.949779 8.014414 C 16.50586 7.710013 16.369967 7.065878 16.648095 6.576662 L 18.102155 4.019148 C 21.137107 -1.313309 28.211718 -1.301532 31.239423 4.019148 L 34.580589 9.894273 L 34.593272 9.916922 L 34.615015 9.902426 L 37.909071 7.642066 C 38.388322 7.313204 38.928271 7.384774 39.317833 7.690988 C 39.7083 7.997201 39.946566 8.537151 39.819732 9.143235 L 37.759588 18.942961 C 37.601952 19.692187 36.922485 20.16419 36.23577 19.990246 L 27.312103 17.728074 C 26.761282 17.588557 26.424267 17.11746 26.345448 16.595629 C 26.26663 16.074705 26.44601 15.507576 26.924354 15.17962 Z M 29.827037 34.137656 L 29.827037 34.162116 L 37.621883 34.162116 C 38.648331 34.162116 39.472751 33.538819 39.905798 32.679972 C 40.338845 31.821126 40.380519 30.724013 39.839663 29.773666 L 37.608294 25.851782 C 37.330165 25.362566 37.466058 24.718431 37.909977 24.41403 L 40.6514 22.533265 C 41.093506 22.228864 41.677848 22.376535 41.955071 22.864845 L 44.182816 26.782199 L 44.203653 26.769515 L 44.182816 26.782199 C 45.794512 29.614217 45.670396 32.869317 44.383939 35.417771 C 43.097481 37.96532 40.649588 39.803505 37.613729 39.803505 L 29.827037 39.803505 L 29.827037 44.094112 C 29.827037 44.720128 29.482774 45.185789 29.039762 45.3851 C 28.597655 45.58441 28.055893 45.520087 27.659085 45.083416 L 21.182405 37.972567 C 20.685035 37.426276 20.685035 36.539345 21.182405 35.993054 L 27.659085 28.883111 C 28.058611 28.443722 28.600373 28.381211 29.041574 28.582333 C 29.48368 28.783456 29.827037 29.250023 29.827037 29.872415 Z M 29.827037 34.137656" stroke-linejoin="miter" fill="none" transform="matrix(4.311744, 0, 0, 4.311744, 47.120027, 287.990778)" stroke-linecap="butt"/></g><path stroke-miterlimit="4" stroke-opacity="1" stroke-width="2" stroke="#96f49d" d="M 41.131557 45.517369 L 41.131557 59.999076" stroke-linejoin="miter" fill="none" transform="matrix(4.311744, 0, 0, 4.311744, 47.120027, 287.990778)" stroke-linecap="butt"/><g clip-path="url(#882fa03c74)"><path stroke-miterlimit="4" stroke-opacity="1" stroke-width="2" stroke="#96f49d" d="M 49.99996 61.000157 L 0.000247468 61.000157" stroke-linejoin="miter" fill="none" transform="matrix(4.311744, 0, 0, 4.311744, 47.120027, 287.990778)" stroke-linecap="butt"/></g><path fill-rule="nonzero" fill-opacity="1" d="M 306.867188 382.144531 C 309.183594 382.425781 311.289062 382.636719 313.183594 382.777344 C 315.007812 382.917969 316.589844 383.058594 317.921875 383.199219 C 319.464844 383.339844 320.835938 383.445312 322.027344 383.515625 C 323.289062 383.515625 324.90625 383.480469 326.871094 383.410156 C 328.554688 383.339844 330.695312 383.234375 333.289062 383.09375 C 335.886719 382.953125 339.082031 382.707031 342.871094 382.355469 C 341.046875 383.410156 339.535156 384.460938 338.34375 385.515625 C 337.222656 386.566406 336.34375 387.515625 335.710938 388.355469 C 334.941406 389.339844 334.378906 390.320312 334.027344 391.304688 C 333.816406 392.636719 333.886719 395.234375 334.238281 399.09375 C 334.378906 400.707031 334.589844 402.707031 334.871094 405.09375 C 335.222656 407.410156 335.640625 410.183594 336.132812 413.410156 C 336.695312 416.566406 337.359375 420.21875 338.132812 424.359375 C 338.976562 428.5 339.921875 433.199219 340.976562 438.464844 C 342.378906 434.464844 343.535156 430.917969 344.449219 427.832031 C 345.363281 424.675781 346.132812 421.972656 346.765625 419.726562 C 347.46875 417.199219 348.0625 414.953125 348.554688 412.988281 C 349.046875 410.953125 349.640625 408.324219 350.34375 405.09375 C 350.90625 402.355469 351.640625 398.8125 352.554688 394.460938 C 353.46875 390.109375 354.589844 384.742188 355.921875 378.355469 L 359.710938 378.882812 C 360.0625 383.867188 360.414062 388.25 360.765625 392.039062 C 361.1875 395.832031 361.539062 399.058594 361.816406 401.726562 C 362.097656 404.8125 362.378906 407.480469 362.660156 409.726562 C 362.941406 411.761719 363.363281 414.113281 363.921875 416.777344 C 364.414062 419.023438 365.046875 421.796875 365.820312 425.09375 C 366.589844 428.324219 367.609375 431.972656 368.871094 436.042969 C 370.132812 431.058594 371.257812 426.605469 372.238281 422.671875 C 373.292969 418.742188 374.167969 415.269531 374.871094 412.253906 C 375.644531 409.234375 376.273438 406.636719 376.765625 404.460938 C 377.328125 402.285156 377.785156 400.460938 378.132812 398.988281 C 378.90625 395.480469 379.363281 393.128906 379.503906 391.9375 C 379.433594 390.601562 379.117188 389.304688 378.554688 388.039062 C 378.0625 386.917969 377.292969 385.691406 376.238281 384.355469 C 375.1875 383.023438 373.644531 381.726562 371.609375 380.460938 C 375.890625 380.601562 379.363281 380.707031 382.03125 380.777344 C 384.765625 380.777344 386.941406 380.777344 388.554688 380.777344 L 396.558594 380.777344 C 397.960938 380.777344 399.785156 380.777344 402.03125 380.777344 C 404.347656 380.707031 407.292969 380.601562 410.871094 380.460938 C 407.785156 382.074219 405.292969 383.550781 403.398438 384.882812 C 401.503906 386.214844 400.03125 387.339844 398.976562 388.25 C 397.714844 389.375 396.800781 390.320312 396.242188 391.09375 C 395.679688 392.496094 394.765625 395.65625 393.503906 400.566406 C 392.941406 402.671875 392.3125 405.304688 391.609375 408.460938 C 390.90625 411.550781 390.066406 415.269531 389.082031 419.621094 C 388.171875 423.972656 387.117188 429.058594 385.925781 434.886719 C 384.730469 440.640625 383.398438 447.234375 381.925781 454.675781 L 363.714844 452.78125 L 355.921875 420.042969 C 354.730469 426.007812 353.78125 430.851562 353.082031 434.570312 C 352.378906 438.21875 351.851562 441.0625 351.503906 443.097656 C 351.082031 445.550781 350.835938 447.339844 350.765625 448.464844 C 350.695312 449.445312 350.625 450.394531 350.554688 451.308594 C 350.484375 452.078125 350.378906 452.921875 350.238281 453.832031 C 350.167969 454.746094 350.0625 455.585938 349.921875 456.359375 L 331.289062 456.359375 C 329.464844 448.359375 327.816406 441.304688 326.34375 435.199219 C 324.941406 429.023438 323.675781 423.621094 322.554688 418.988281 C 321.429688 414.359375 320.449219 410.429688 319.605469 407.199219 C 318.835938 403.972656 318.132812 401.269531 317.5 399.09375 C 316.097656 394.042969 315.078125 390.917969 314.449219 389.726562 C 313.957031 389.164062 313.324219 388.496094 312.554688 387.726562 C 311.921875 387.09375 311.148438 386.320312 310.238281 385.410156 C 309.253906 384.425781 308.132812 383.339844 306.867188 382.144531 Z M 414.976562 384.882812 C 418.488281 385.09375 421.433594 385.269531 423.820312 385.410156 C 426.277344 385.480469 428.3125 385.550781 429.925781 385.621094 C 431.75 385.691406 433.292969 385.691406 434.558594 385.621094 C 435.820312 385.550781 437.539062 385.375 439.714844 385.09375 C 441.539062 384.882812 443.960938 384.566406 446.980469 384.144531 C 450.066406 383.65625 453.890625 383.023438 458.453125 382.25 C 456.839844 383.867188 455.578125 385.339844 454.664062 386.671875 C 453.820312 387.9375 453.15625 389.023438 452.664062 389.9375 C 452.101562 391.058594 451.714844 392.007812 451.507812 392.777344 C 451.367188 393.480469 451.507812 395.234375 451.925781 398.042969 C 452.347656 400.847656 452.945312 404.183594 453.714844 408.042969 C 454.488281 411.832031 455.332031 415.902344 456.242188 420.253906 C 457.15625 424.535156 458.066406 428.570312 458.980469 432.359375 C 459.890625 436.078125 460.699219 439.269531 461.402344 441.9375 C 462.171875 444.535156 462.734375 446.078125 463.085938 446.570312 C 464.136719 448.042969 464.804688 449.027344 465.085938 449.515625 C 465.367188 449.9375 465.859375 450.324219 466.558594 450.675781 C 466.839844 450.816406 467.296875 451.027344 467.925781 451.308594 C 468.488281 451.585938 469.226562 451.9375 470.136719 452.359375 C 471.121094 452.78125 472.347656 453.273438 473.824219 453.832031 C 471.085938 453.972656 468.734375 454.078125 466.769531 454.148438 C 464.804688 454.148438 463.191406 454.183594 461.925781 454.253906 C 460.453125 454.324219 459.191406 454.394531 458.136719 454.464844 C 457.085938 454.464844 455.820312 454.535156 454.347656 454.675781 C 453.085938 454.816406 451.4375 454.957031 449.402344 455.097656 C 447.4375 455.238281 445.121094 455.378906 442.453125 455.515625 C 443.855469 454.535156 444.980469 453.65625 445.820312 452.886719 C 446.734375 452.042969 447.4375 451.339844 447.925781 450.78125 C 448.488281 450.078125 448.875 449.445312 449.085938 448.886719 C 449.226562 448.253906 449.332031 447.304688 449.402344 446.042969 C 449.472656 444.921875 449.472656 443.445312 449.402344 441.621094 C 449.332031 439.726562 449.15625 437.269531 448.875 434.253906 L 421.1875 437.09375 C 420.488281 438.289062 419.960938 439.339844 419.609375 440.253906 C 419.257812 441.09375 419.011719 441.832031 418.875 442.464844 C 418.664062 443.234375 418.59375 443.867188 418.664062 444.359375 C 418.804688 444.921875 419.046875 445.585938 419.398438 446.359375 C 419.75 447.0625 420.242188 447.902344 420.875 448.886719 C 421.574219 449.796875 422.59375 450.886719 423.925781 452.148438 C 422.171875 452.078125 420.382812 452.042969 418.558594 452.042969 C 416.734375 452.042969 415.046875 452.078125 413.503906 452.148438 C 411.679688 452.21875 409.890625 452.289062 408.136719 452.359375 C 406.382812 452.429688 404.382812 452.535156 402.136719 452.675781 C 400.242188 452.816406 398.03125 452.992188 395.503906 453.203125 C 392.90625 453.34375 390.136719 453.550781 387.1875 453.832031 C 389.011719 452.992188 390.554688 452.148438 391.820312 451.308594 C 393.082031 450.394531 394.136719 449.550781 394.976562 448.78125 C 395.960938 447.9375 396.800781 447.128906 397.503906 446.359375 C 397.996094 445.65625 398.976562 444.042969 400.453125 441.515625 C 401.925781 438.917969 403.574219 435.867188 405.398438 432.359375 C 407.292969 428.847656 409.257812 425.09375 411.292969 421.09375 C 413.398438 417.09375 415.292969 413.339844 416.976562 409.832031 C 418.664062 406.253906 420.03125 403.164062 421.082031 400.566406 C 422.136719 397.972656 422.664062 396.285156 422.664062 395.515625 C 422.523438 394.601562 422.171875 393.585938 421.609375 392.460938 C 421.117188 391.480469 420.347656 390.355469 419.292969 389.09375 C 418.3125 387.832031 416.875 386.425781 414.976562 384.882812 Z M 447.609375 426.464844 C 447.191406 424.007812 446.804688 421.902344 446.453125 420.148438 C 446.101562 418.324219 445.820312 416.8125 445.609375 415.621094 C 445.332031 414.21875 445.121094 412.988281 444.980469 411.9375 C 444.769531 410.953125 444.523438 409.691406 444.242188 408.148438 C 443.960938 406.8125 443.609375 405.164062 443.191406 403.199219 C 442.839844 401.164062 442.382812 398.742188 441.820312 395.9375 C 437.820312 403.9375 434.699219 410.148438 432.453125 414.566406 C 430.277344 418.917969 428.699219 422.113281 427.714844 424.148438 C 426.523438 426.535156 425.855469 427.9375 425.714844 428.359375 Z M 536.5625 379.09375 C 535.582031 381.339844 534.699219 383.304688 533.929688 384.988281 C 533.15625 386.671875 532.492188 388.109375 531.929688 389.304688 C 531.296875 390.636719 530.773438 391.832031 530.351562 392.882812 C 530 393.65625 529.542969 394.707031 528.984375 396.042969 C 528.421875 397.234375 527.71875 398.8125 526.878906 400.777344 C 526.105469 402.671875 525.089844 405.128906 523.828125 408.148438 C 523.191406 405.550781 522.421875 403.269531 521.507812 401.304688 C 520.597656 399.339844 519.613281 397.621094 518.5625 396.148438 C 517.507812 394.671875 516.382812 393.480469 515.195312 392.566406 C 514.070312 391.585938 512.949219 390.777344 511.824219 390.144531 C 509.226562 388.742188 506.488281 387.96875 503.613281 387.832031 C 499.824219 388.039062 496.839844 388.671875 494.667969 389.726562 C 492.5625 390.707031 491.019531 391.867188 490.035156 393.199219 C 489.050781 394.460938 488.527344 395.796875 488.453125 397.199219 C 488.382812 398.53125 488.5625 399.65625 488.984375 400.566406 C 489.332031 401.410156 490.5625 402.390625 492.664062 403.515625 C 494.84375 404.636719 497.4375 405.9375 500.457031 407.410156 C 503.542969 408.8125 506.84375 410.429688 510.351562 412.253906 C 513.859375 414.007812 517.085938 415.972656 520.035156 418.148438 C 523.054688 420.253906 525.578125 422.570312 527.613281 425.09375 C 529.71875 427.550781 530.875 430.183594 531.085938 432.988281 C 531.296875 436.570312 531.265625 439.796875 530.984375 442.675781 C 530.703125 445.550781 529.71875 448.007812 528.035156 450.042969 C 526.351562 452.078125 523.71875 453.691406 520.140625 454.886719 C 516.628906 456.078125 511.753906 456.816406 505.511719 457.097656 C 499.050781 457.375 493.753906 457.027344 489.613281 456.042969 C 485.472656 455.0625 482.101562 453.726562 479.507812 452.042969 C 476.980469 450.359375 475.085938 448.5 473.824219 446.464844 C 472.628906 444.429688 471.753906 442.5 471.191406 440.675781 C 470.628906 438.78125 470.242188 437.164062 470.03125 435.832031 C 469.824219 434.429688 469.472656 433.585938 468.980469 433.304688 C 468.417969 432.953125 467.855469 432.640625 467.296875 432.359375 C 466.804688 432.078125 466.277344 431.832031 465.71875 431.621094 C 465.15625 431.339844 464.59375 431.09375 464.03125 430.882812 L 494.667969 425.9375 C 492.910156 427.339844 491.542969 428.640625 490.5625 429.832031 C 489.648438 431.023438 488.945312 432.078125 488.453125 432.988281 C 487.890625 434.042969 487.507812 435.023438 487.296875 435.9375 C 487.15625 436.921875 487.472656 438.148438 488.246094 439.621094 C 489.019531 441.09375 490.070312 442.535156 491.402344 443.9375 C 492.808594 445.269531 494.421875 446.394531 496.246094 447.304688 C 498.066406 448.21875 499.964844 448.605469 501.925781 448.464844 C 504.382812 448.253906 506.386719 447.65625 507.929688 446.675781 C 509.472656 445.621094 510.632812 444.324219 511.402344 442.78125 C 512.246094 441.234375 512.738281 439.550781 512.878906 437.726562 C 513.015625 435.902344 512.839844 434.113281 512.347656 432.359375 C 511.929688 430.535156 511.226562 428.847656 510.246094 427.304688 C 509.261719 425.691406 508.105469 424.359375 506.769531 423.304688 C 505.578125 422.464844 503.714844 421.65625 501.195312 420.882812 C 498.738281 420.113281 495.964844 419.269531 492.875 418.359375 C 489.859375 417.445312 486.738281 416.394531 483.507812 415.199219 C 480.351562 414.007812 477.472656 412.53125 474.875 410.777344 C 472.347656 409.023438 470.3125 406.953125 468.769531 404.566406 C 467.296875 402.183594 466.734375 399.304688 467.085938 395.9375 C 467.367188 393.058594 468.277344 390.671875 469.824219 388.777344 C 471.4375 386.8125 473.4375 385.269531 475.824219 384.144531 C 478.277344 382.953125 480.980469 382.074219 483.929688 381.515625 C 486.949219 380.953125 490 380.636719 493.089844 380.566406 C 496.246094 380.425781 499.332031 380.460938 502.347656 380.671875 C 505.4375 380.882812 508.210938 381.128906 510.667969 381.410156 C 513.121094 381.691406 515.195312 381.96875 516.875 382.25 C 518.628906 382.460938 519.71875 382.601562 520.140625 382.671875 C 521.964844 382.8125 523.789062 382.777344 525.617188 382.566406 C 527.226562 382.425781 528.984375 382.109375 530.875 381.621094 C 532.84375 381.058594 534.734375 380.214844 536.5625 379.09375 Z M 533.929688 379.304688 C 538.632812 379.863281 542.703125 380.285156 546.140625 380.566406 C 549.582031 380.777344 552.421875 380.953125 554.667969 381.09375 C 557.265625 381.234375 559.441406 381.269531 561.195312 381.199219 C 563.019531 381.128906 565.511719 380.953125 568.667969 380.671875 C 571.332031 380.460938 574.84375 380.179688 579.195312 379.828125 C 583.542969 379.410156 588.984375 378.847656 595.511719 378.144531 C 595.582031 379.761719 595.617188 381.339844 595.617188 382.882812 C 595.6875 384.355469 595.757812 385.65625 595.828125 386.777344 C 595.898438 388.109375 595.933594 389.339844 595.933594 390.460938 C 595.933594 391.65625 595.863281 393.164062 595.71875 394.988281 C 595.582031 396.53125 595.335938 398.496094 594.984375 400.882812 C 594.703125 403.199219 594.25 405.972656 593.617188 409.199219 C 592.632812 405.410156 591.6875 402.355469 590.773438 400.042969 C 589.859375 397.65625 589.019531 395.761719 588.25 394.355469 C 587.40625 392.742188 586.5625 391.515625 585.722656 390.671875 C 584.808594 390.042969 583.722656 389.515625 582.457031 389.09375 C 581.335938 388.742188 579.894531 388.460938 578.140625 388.25 C 576.460938 388.039062 574.460938 388.074219 572.144531 388.355469 C 571.789062 397.621094 571.542969 405.128906 571.40625 410.882812 C 571.265625 416.636719 571.160156 421.128906 571.085938 424.359375 C 571.019531 428.21875 570.984375 430.988281 570.984375 432.675781 C 571.054688 435.058594 571.441406 437.410156 572.144531 439.726562 C 572.703125 441.691406 573.613281 443.726562 574.878906 445.832031 C 576.140625 447.9375 577.96875 449.796875 580.351562 451.410156 L 567.507812 451.410156 C 566.320312 451.410156 564.84375 451.480469 563.089844 451.621094 C 561.613281 451.761719 559.722656 451.902344 557.40625 452.042969 C 555.160156 452.183594 552.523438 452.429688 549.511719 452.78125 C 550.5625 450.957031 551.40625 449.304688 552.039062 447.832031 C 552.667969 446.359375 553.160156 445.09375 553.507812 444.042969 C 553.929688 442.78125 554.246094 441.65625 554.457031 440.675781 C 554.527344 439.269531 554.703125 436.429688 554.984375 432.148438 C 555.050781 430.394531 555.125 428.21875 555.195312 425.621094 C 555.335938 423.023438 555.472656 419.9375 555.617188 416.359375 C 555.824219 412.777344 556 408.671875 556.144531 404.042969 C 556.355469 399.339844 556.5625 394.042969 556.773438 388.144531 C 555.507812 387.796875 554.320312 387.832031 553.195312 388.25 C 552.074219 388.601562 551.089844 389.058594 550.25 389.621094 C 549.265625 390.320312 548.316406 391.164062 547.402344 392.144531 C 546.492188 393.339844 545.476562 394.882812 544.351562 396.777344 C 543.367188 398.390625 542.246094 400.53125 540.984375 403.199219 C 539.71875 405.796875 538.28125 409.023438 536.667969 412.882812 C 536.316406 408.8125 536.070312 405.480469 535.929688 402.882812 C 535.792969 400.21875 535.683594 398.148438 535.613281 396.671875 C 535.546875 394.917969 535.511719 393.621094 535.511719 392.777344 C 535.511719 392.007812 535.4375 390.988281 535.300781 389.726562 C 535.15625 388.671875 534.980469 387.304688 534.773438 385.621094 C 534.5625 383.867188 534.28125 381.761719 533.929688 379.304688 Z M 588.460938 384.25 C 593.371094 384.390625 597.441406 384.496094 600.671875 384.566406 C 603.96875 384.566406 606.632812 384.566406 608.667969 384.566406 L 645.621094 384.566406 C 645.757812 385.972656 645.867188 387.339844 645.933594 388.671875 C 646.074219 389.9375 646.144531 391.058594 646.144531 392.039062 C 646.144531 393.234375 646.113281 394.320312 646.039062 395.304688 C 645.96875 396.285156 645.867188 397.339844 645.722656 398.460938 C 645.585938 399.445312 645.445312 400.496094 645.300781 401.621094 C 645.164062 402.742188 644.917969 403.902344 644.5625 405.09375 C 643.585938 401.304688 642.25 398.425781 640.566406 396.460938 C 638.949219 394.496094 637.304688 393.058594 635.617188 392.144531 C 633.65625 391.09375 631.582031 390.53125 629.40625 390.460938 C 626.53125 390.601562 624.285156 390.847656 622.667969 391.199219 C 621.054688 391.550781 619.792969 392.039062 618.878906 392.671875 C 617.96875 393.304688 617.265625 394.042969 616.773438 394.882812 C 616.355469 395.65625 615.898438 396.53125 615.40625 397.515625 C 614.984375 398.355469 614.601562 399.65625 614.246094 401.410156 C 613.898438 402.882812 613.546875 404.882812 613.195312 407.410156 C 612.914062 409.9375 612.601562 413.199219 612.246094 417.199219 C 614.144531 416.636719 615.652344 416.113281 616.773438 415.621094 C 617.96875 415.128906 618.917969 414.707031 619.617188 414.359375 C 620.386719 413.9375 620.953125 413.550781 621.300781 413.199219 C 621.582031 412.777344 622.003906 412.007812 622.566406 410.882812 C 622.988281 409.902344 623.546875 408.566406 624.25 406.882812 C 625.023438 405.199219 625.933594 402.882812 626.984375 399.9375 C 627.128906 403.164062 627.195312 405.867188 627.195312 408.042969 C 627.195312 410.148438 627.230469 411.867188 627.304688 413.199219 C 627.304688 414.742188 627.339844 415.972656 627.40625 416.882812 L 627.40625 420.882812 C 627.40625 422.359375 627.40625 424.359375 627.40625 426.882812 C 627.476562 429.339844 627.585938 432.464844 627.722656 436.253906 C 626.882812 433.65625 626.109375 431.621094 625.40625 430.148438 C 624.777344 428.605469 624.210938 427.445312 623.726562 426.675781 C 623.160156 425.761719 622.667969 425.128906 622.25 424.777344 C 621.757812 424.640625 621.089844 424.5 620.25 424.359375 C 619.476562 424.289062 618.496094 424.253906 617.300781 424.253906 C 616.179688 424.253906 614.738281 424.429688 612.984375 424.777344 C 612.773438 428.640625 612.738281 431.761719 612.882812 434.148438 C 613.09375 436.464844 613.371094 438.253906 613.722656 439.515625 C 614.074219 440.992188 614.492188 442.042969 614.984375 442.675781 C 615.617188 443.304688 616.882812 443.832031 618.773438 444.253906 C 620.671875 444.605469 622.8125 444.746094 625.195312 444.675781 C 627.652344 444.535156 630.144531 444.113281 632.671875 443.410156 C 635.199219 442.710938 637.441406 441.550781 639.40625 439.9375 C 640.882812 438.605469 642.460938 436.921875 644.144531 434.886719 C 645.546875 433.128906 647.089844 430.917969 648.777344 428.253906 C 650.53125 425.585938 652.25 422.359375 653.933594 418.570312 C 653.652344 421.726562 653.441406 424.359375 653.304688 426.464844 C 653.234375 428.5 653.128906 430.148438 652.988281 431.410156 C 652.847656 432.882812 652.742188 434.007812 652.667969 434.78125 C 652.667969 435.621094 652.566406 436.816406 652.355469 438.359375 C 652.21875 439.691406 651.972656 441.515625 651.617188 443.832031 C 651.335938 446.078125 650.953125 448.957031 650.460938 452.464844 C 647.164062 452.535156 644.039062 452.605469 641.09375 452.675781 C 638.144531 452.675781 635.546875 452.710938 633.300781 452.78125 C 630.636719 452.851562 628.179688 452.921875 625.933594 452.992188 C 623.617188 452.992188 621.054688 453.097656 618.25 453.304688 C 615.792969 453.445312 612.882812 453.65625 609.511719 453.9375 C 606.214844 454.21875 602.5625 454.605469 598.566406 455.097656 C 598.914062 450.324219 599.160156 445.832031 599.300781 441.621094 C 599.511719 437.339844 599.652344 433.585938 599.722656 430.359375 C 599.789062 426.570312 599.789062 423.058594 599.722656 419.832031 C 600.070312 411.761719 599.933594 405.234375 599.300781 400.25 C 598.667969 395.269531 597.933594 392.078125 597.089844 390.671875 C 596.667969 390.179688 596.074219 389.585938 595.300781 388.882812 C 594.667969 388.320312 593.792969 387.65625 592.667969 386.882812 C 591.546875 386.109375 590.140625 385.234375 588.460938 384.25 Z M 648.039062 384.671875 C 651.125 384.8125 653.761719 384.917969 655.933594 384.988281 C 658.109375 385.058594 659.902344 385.128906 661.300781 385.199219 C 662.988281 385.269531 664.355469 385.339844 665.40625 385.410156 C 666.53125 385.480469 667.933594 385.515625 669.621094 385.515625 C 672.496094 385.515625 676.566406 385.304688 681.832031 384.882812 C 680.710938 385.445312 679.828125 386.074219 679.199219 386.777344 C 678.566406 387.410156 678.074219 388.039062 677.726562 388.671875 C 677.304688 389.445312 676.988281 390.179688 676.777344 390.882812 C 676.640625 391.726562 676.953125 393.023438 677.726562 394.777344 C 678.285156 396.25 679.304688 398.253906 680.777344 400.777344 C 682.253906 403.304688 684.425781 406.566406 687.304688 410.566406 C 690.742188 405.515625 693.410156 401.550781 695.304688 398.671875 C 697.203125 395.796875 698.601562 393.621094 699.515625 392.144531 C 700.570312 390.390625 701.199219 389.234375 701.410156 388.671875 C 701.339844 388.320312 701.0625 387.832031 700.570312 387.199219 C 700.148438 386.636719 699.445312 385.972656 698.460938 385.199219 C 697.550781 384.355469 696.183594 383.339844 694.355469 382.144531 C 697.234375 382.566406 699.621094 382.882812 701.519531 383.09375 C 703.480469 383.304688 705.058594 383.445312 706.253906 383.515625 C 707.65625 383.585938 708.8125 383.585938 709.726562 383.515625 C 710.636719 383.445312 711.972656 383.375 713.726562 383.304688 C 715.199219 383.234375 717.164062 383.164062 719.621094 383.09375 C 722.148438 383.023438 725.375 382.917969 729.308594 382.777344 C 727.761719 383.550781 726.429688 384.285156 725.304688 384.988281 C 724.183594 385.691406 723.234375 386.320312 722.464844 386.882812 C 721.550781 387.585938 720.742188 388.179688 720.039062 388.671875 C 719.199219 389.515625 717.65625 391.234375 715.410156 393.832031 C 713.515625 396.078125 710.8125 399.375 707.304688 403.726562 C 703.792969 408.007812 699.09375 413.832031 693.199219 421.199219 C 697.972656 426.253906 701.832031 430.253906 704.777344 433.199219 C 707.726562 436.148438 710.042969 438.394531 711.726562 439.9375 C 713.691406 441.761719 715.128906 442.988281 716.042969 443.621094 C 716.882812 444.113281 718.042969 444.746094 719.515625 445.515625 C 720.777344 446.21875 722.429688 447.097656 724.464844 448.148438 C 726.5 449.132812 729.09375 450.324219 732.25 451.726562 L 714.671875 451.726562 C 713.199219 451.726562 711.410156 451.796875 709.304688 451.9375 C 707.480469 452.078125 705.234375 452.21875 702.570312 452.359375 C 699.902344 452.5 696.777344 452.746094 693.199219 453.097656 C 694.464844 452.324219 695.375 451.585938 695.9375 450.886719 C 696.566406 450.113281 696.992188 449.445312 697.203125 448.886719 C 697.480469 448.253906 697.515625 447.691406 697.304688 447.199219 C 696.957031 446.5 696.355469 445.445312 695.515625 444.042969 C 694.742188 442.851562 693.65625 441.164062 692.25 438.988281 C 690.851562 436.816406 688.917969 433.9375 686.460938 430.359375 C 683.652344 433.375 681.480469 435.902344 679.9375 437.9375 C 678.460938 439.902344 677.335938 441.480469 676.566406 442.675781 C 675.726562 444.078125 675.164062 445.199219 674.882812 446.042969 C 674.882812 446.816406 675.054688 447.585938 675.410156 448.359375 C 675.757812 449.0625 676.320312 449.832031 677.089844 450.675781 C 677.9375 451.515625 679.164062 452.324219 680.777344 453.097656 L 649.617188 454.464844 C 652.144531 452.710938 654.253906 451.132812 655.933594 449.726562 C 657.621094 448.253906 658.988281 447.027344 660.039062 446.042969 C 661.234375 444.851562 662.179688 443.796875 662.882812 442.886719 C 663.582031 441.832031 664.671875 440.289062 666.144531 438.253906 C 667.339844 436.5 668.988281 434.148438 671.09375 431.199219 C 673.265625 428.253906 676.039062 424.464844 679.410156 419.832031 C 675.691406 413.867188 672.671875 409.128906 670.355469 405.621094 C 668.109375 402.113281 666.285156 399.410156 664.878906 397.515625 C 663.269531 395.339844 662.074219 393.832031 661.300781 392.988281 C 660.601562 392.355469 659.621094 391.65625 658.355469 390.882812 C 657.304688 390.179688 655.933594 389.339844 654.253906 388.355469 C 652.566406 387.304688 650.496094 386.074219 648.039062 384.671875 Z M 648.039062 384.671875" fill="#32cd32"/></svg>