<svg width="18" height="19" viewBox="0 0 18 19" fill="none" xmlns="http://www.w3.org/2000/svg">
<path d="M7.24888 3.02635C7.8358 2.08238 9.20967 2.08238 9.79659 3.02635L11.0561 5.0521C11.2626 5.38423 11.5907 5.62258 11.9703 5.71634L14.2862 6.28822C15.3653 6.5547 15.7899 7.86134 15.0734 8.71123L13.5361 10.5351C13.284 10.8341 13.1587 11.2198 13.1868 11.6098L13.3586 13.989C13.4386 15.0977 12.3271 15.9053 11.2974 15.4865L9.08777 14.588C8.72548 14.4407 8.31999 14.4407 7.95771 14.588L5.74803 15.4865C4.71835 15.9053 3.60686 15.0977 3.68689 13.989L3.85863 11.6098C3.88678 11.2198 3.76148 10.8341 3.50942 10.5351L1.97203 8.71123C1.25562 7.86133 1.68017 6.5547 2.75931 6.28822L5.07513 5.71634C5.45481 5.62258 5.78287 5.38423 5.98937 5.0521L7.24888 3.02635Z" fill="#F6C002"/>
</svg>
