<svg width="20" height="20" viewBox="0 0 20 20" fill="none" xmlns="http://www.w3.org/2000/svg">
<g clip-path="url(#clip0_45_735)">
<path d="M9.37375 0.645411C9.15073 0.773957 8.97284 0.968219 8.86437 1.20166L6.61062 6.05541L1.21937 6.75041C1.05652 6.77139 0.899393 6.82424 0.756971 6.90596C0.61455 6.98768 0.489625 7.09665 0.389331 7.22666C0.289037 7.35667 0.215341 7.50517 0.172453 7.66367C0.129564 7.82217 0.118323 7.98757 0.139372 8.15041L0.158747 8.25979C0.215168 8.51435 0.349784 8.7449 0.543747 8.91916L4.51875 12.4979L3.44625 17.8779C3.3815 18.203 3.4485 18.5404 3.63251 18.8161C3.81652 19.0917 4.10247 19.283 4.4275 19.3479L4.54 19.3654C4.80389 19.3934 5.06985 19.3367 5.29937 19.2035L9.99875 16.4798L14.6987 19.2035C14.8408 19.2859 14.9976 19.3395 15.1604 19.3613C15.3231 19.3831 15.4886 19.3725 15.6473 19.3303C15.8059 19.2881 15.9547 19.2151 16.0852 19.1154C16.2156 19.0157 16.3252 18.8912 16.4075 18.7492L16.46 18.6479C16.5715 18.4075 16.6036 18.1378 16.5519 17.8779L15.4787 12.4979L19.4544 8.91916C19.5764 8.80932 19.6756 8.67651 19.7463 8.52832C19.817 8.38013 19.8578 8.21947 19.8664 8.05551C19.875 7.89155 19.8512 7.7275 19.7963 7.57274C19.7415 7.41798 19.6568 7.27553 19.5469 7.15354L19.4687 7.07416C19.2779 6.89693 19.0364 6.78374 18.7781 6.75041L13.3862 6.05479L11.1325 1.20166C10.9928 0.901095 10.7394 0.668317 10.4282 0.554512C10.1169 0.440707 9.77311 0.455193 9.4725 0.594786L9.37375 0.645411ZM7.455 7.20729L9.99875 1.72854L12.5425 7.20729L18.6175 7.98979L14.1137 12.0454L15.325 18.1223L9.99812 15.0348L4.67187 18.1223L5.88375 12.0454L1.37937 7.98979L7.455 7.20729Z" fill="#222222"/>
</g>
<defs>
<clipPath id="clip0_45_735">
<rect width="20" height="20" fill="white"/>
</clipPath>
</defs>
</svg>
