<svg width="42" height="42" viewBox="0 0 42 42" fill="none" xmlns="http://www.w3.org/2000/svg">
<path fill-rule="evenodd" clip-rule="evenodd" d="M41.2007 18.2214L34.6382 7.72141C33.6801 6.18709 31.9974 5.25391 30.1875 5.25391H5.25C2.35069 5.25391 0 7.60459 0 10.5039V31.5039C0 34.4032 2.35069 36.7539 5.25 36.7539H30.1875C31.9974 36.7539 33.6787 35.8207 34.6382 34.2851L41.2007 23.7851C42.2664 22.0854 42.2664 19.9237 41.2007 18.2214ZM38.9747 22.3938L32.4122 32.8965C31.9305 33.6682 31.0971 34.1289 30.1875 34.1289H5.25C3.80231 34.1289 2.625 32.9503 2.625 31.5039V10.5039C2.625 9.05622 3.80231 7.87891 5.25 7.87891H30.1875C31.0971 7.87891 31.9305 8.34091 32.4122 9.11134L38.9747 19.6113C39.5036 20.4579 39.5036 21.5499 38.9747 22.3938Z" fill="#333333"/>
<path fill-rule="evenodd" clip-rule="evenodd" d="M30.1875 17.0664C28.0114 17.0664 26.25 18.8291 26.25 21.0039C26.25 23.1787 28.0114 24.9414 30.1875 24.9414C32.361 24.9414 34.125 23.1774 34.125 21.0039C34.125 18.8291 32.361 17.0664 30.1875 17.0664ZM30.1875 23.6302C28.7372 23.6302 27.5625 22.4542 27.5625 21.0052C27.5625 19.5562 28.7372 18.3802 30.1875 18.3802C31.6365 18.3802 32.8125 19.5562 32.8125 21.0052C32.8125 22.4529 31.6365 23.6302 30.1875 23.6302Z" fill="#333333"/>
</svg>
